<svg xmlns="http://www.w3.org/2000/svg" width="280" height="420" viewBox="0 0 280 420">
  <rect width="280" height="420" fill="#fff" rx="4"/>
  <rect x="0" y="0" width="280" height="420" fill="none" stroke="#e0e0e0" stroke-width="1" rx="4"/>

  <!-- Header -->
  <text x="140" y="30" text-anchor="middle" font-family="monospace" font-size="13" font-weight="bold" fill="#333">FRESH MARKET</text>
  <text x="140" y="46" text-anchor="middle" font-family="monospace" font-size="10" fill="#666">123 Main Street</text>
  <text x="140" y="60" text-anchor="middle" font-family="monospace" font-size="10" fill="#666">2026-04-17  14:32</text>

  <!-- Divider -->
  <line x1="20" y1="70" x2="260" y2="70" stroke="#ccc" stroke-width="1" stroke-dasharray="4,3"/>

  <!-- Items -->
  <text x="20" y="92" font-family="monospace" font-size="11" fill="#333">Whole Milk 1L</text>
  <text x="260" y="92" text-anchor="end" font-family="monospace" font-size="11" fill="#333">$1.89</text>

  <text x="20" y="112" font-family="monospace" font-size="11" fill="#333">Free Range Eggs 6pk</text>
  <text x="260" y="112" text-anchor="end" font-family="monospace" font-size="11" fill="#333">$3.49</text>

  <text x="20" y="132" font-family="monospace" font-size="11" fill="#333">Bananas 1kg</text>
  <text x="260" y="132" text-anchor="end" font-family="monospace" font-size="11" fill="#333">$1.29</text>

  <text x="20" y="152" font-family="monospace" font-size="11" fill="#333">Unsalted Butter 250g</text>
  <text x="260" y="152" text-anchor="end" font-family="monospace" font-size="11" fill="#333">$2.99</text>

  <text x="20" y="172" font-family="monospace" font-size="11" fill="#333">Roma Tomatoes 500g</text>
  <text x="260" y="172" text-anchor="end" font-family="monospace" font-size="11" fill="#333">$2.49</text>

  <text x="20" y="192" font-family="monospace" font-size="11" fill="#333">Whole Wheat Bread</text>
  <text x="260" y="192" text-anchor="end" font-family="monospace" font-size="11" fill="#333">$3.19</text>

  <!-- Divider -->
  <line x1="20" y1="205" x2="260" y2="205" stroke="#ccc" stroke-width="1" stroke-dasharray="4,3"/>

  <!-- Subtotal -->
  <text x="20" y="222" font-family="monospace" font-size="11" fill="#555">SUBTOTAL</text>
  <text x="260" y="222" text-anchor="end" font-family="monospace" font-size="11" fill="#555">$15.34</text>

  <text x="20" y="238" font-family="monospace" font-size="11" fill="#555">TAX (8%)</text>
  <text x="260" y="238" text-anchor="end" font-family="monospace" font-size="11" fill="#555">$1.23</text>

  <!-- Divider -->
  <line x1="20" y1="248" x2="260" y2="248" stroke="#ccc" stroke-width="1"/>

  <text x="20" y="266" font-family="monospace" font-size="13" font-weight="bold" fill="#333">TOTAL</text>
  <text x="260" y="266" text-anchor="end" font-family="monospace" font-size="13" font-weight="bold" fill="#333">$16.57</text>

  <!-- Divider -->
  <line x1="20" y1="278" x2="260" y2="278" stroke="#ccc" stroke-width="1" stroke-dasharray="4,3"/>

  <!-- Payment -->
  <text x="20" y="295" font-family="monospace" font-size="11" fill="#555">CASH</text>
  <text x="260" y="295" text-anchor="end" font-family="monospace" font-size="11" fill="#555">$20.00</text>

  <text x="20" y="311" font-family="monospace" font-size="11" fill="#555">CHANGE</text>
  <text x="260" y="311" text-anchor="end" font-family="monospace" font-size="11" fill="#555">$3.43</text>

  <!-- Footer -->
  <line x1="20" y1="325" x2="260" y2="325" stroke="#ccc" stroke-width="1" stroke-dasharray="4,3"/>
  <text x="140" y="345" text-anchor="middle" font-family="monospace" font-size="10" fill="#999">Thank you for shopping!</text>
  <text x="140" y="360" text-anchor="middle" font-family="monospace" font-size="10" fill="#999">Receipt #: 000847</text>

  <!-- Barcode simulation -->
  <rect x="60" y="374" width="3" height="24" fill="#333"/>
  <rect x="65" y="374" width="2" height="24" fill="#333"/>
  <rect x="69" y="374" width="4" height="24" fill="#333"/>
  <rect x="75" y="374" width="2" height="24" fill="#333"/>
  <rect x="79" y="374" width="3" height="24" fill="#333"/>
  <rect x="84" y="374" width="2" height="24" fill="#333"/>
  <rect x="88" y="374" width="4" height="24" fill="#333"/>
  <rect x="94" y="374" width="2" height="24" fill="#333"/>
  <rect x="98" y="374" width="3" height="24" fill="#333"/>
  <rect x="103" y="374" width="2" height="24" fill="#333"/>
  <rect x="107" y="374" width="4" height="24" fill="#333"/>
  <rect x="113" y="374" width="2" height="24" fill="#333"/>
  <rect x="117" y="374" width="3" height="24" fill="#333"/>
  <rect x="122" y="374" width="2" height="24" fill="#333"/>
  <rect x="126" y="374" width="4" height="24" fill="#333"/>
  <rect x="132" y="374" width="2" height="24" fill="#333"/>
  <rect x="136" y="374" width="3" height="24" fill="#333"/>
  <rect x="141" y="374" width="4" height="24" fill="#333"/>
  <rect x="147" y="374" width="2" height="24" fill="#333"/>
  <rect x="151" y="374" width="3" height="24" fill="#333"/>
  <rect x="156" y="374" width="2" height="24" fill="#333"/>
  <rect x="160" y="374" width="4" height="24" fill="#333"/>
  <rect x="166" y="374" width="2" height="24" fill="#333"/>
  <rect x="170" y="374" width="3" height="24" fill="#333"/>
  <rect x="175" y="374" width="2" height="24" fill="#333"/>
  <rect x="179" y="374" width="4" height="24" fill="#333"/>
  <rect x="185" y="374" width="2" height="24" fill="#333"/>
  <rect x="189" y="374" width="3" height="24" fill="#333"/>
  <rect x="194" y="374" width="2" height="24" fill="#333"/>
  <rect x="198" y="374" width="4" height="24" fill="#333"/>
  <rect x="204" y="374" width="2" height="24" fill="#333"/>
  <rect x="208" y="374" width="3" height="24" fill="#333"/>
  <rect x="213" y="374" width="2" height="24" fill="#333"/>
  <rect x="217" y="374" width="4" height="24" fill="#333"/>
</svg>
